# xmcd
#
# Track frame offsets: 
#        188
#        15913
#        41188
#        66163
#        83413
#        103588
#        128638
#        151138
#        171163
#        187738
#        206488
#        224188
#
# Disc length: 3285 seconds
#
# Revision: 1
# Processed by: cddbd v1.5.2PL0 Copyright (c) Steve Scherf et al.
# Submitted via: ExactAudioCopy v1.0b1
#
DISCID=980cd30c
DTITLE=Richard T. Bear - Sunshine Hotel
DYEAR=1994
DGENRE=
TTITLE0=Sunshine Hotel ( Just Walk On In )
TTITLE1=Ruby Tuesday
TTITLE2=Fire
TTITLE3=Bring On The Night
TTITLE4=Squeeze Play
TTITLE5=Breakin' Out Tonight
TTITLE6=Pain In My Heart
TTITLE7=The Heart's A Lonely Hunter
TTITLE8=Susannah
TTITLE9=Highway Robbery
TTITLE10=If You Really Want My Love
TTITLE11=Blues Power
EXTD=
EXTT0=1978
EXTT1=1979
EXTT2=1979
EXTT3=1978
EXTT4=1979
EXTT5=1979
EXTT6=1978
EXTT7=1978
EXTT8=1978
EXTT9=1979
EXTT10=1978
EXTT11=1978
PLAYORDER=
